<?xml version="1.0" encoding="utf-8"?>
<!-- Generator: Adobe Illustrator 19.0.0, SVG Export Plug-In . SVG Version: 6.00 Build 0)  -->
<svg version="1.1" id="layer" xmlns="http://www.w3.org/2000/svg" xmlns:xlink="http://www.w3.org/1999/xlink" x="0px" y="0px"
	 viewBox="-153 -46 652 652" style="enable-background:new -153 -46 652 652;" xml:space="preserve">
<style type="text/css">
	.st0{fill:#0A27A9;}
</style>
<path class="st0" d="M206.8,258.8c15.4,0,24.9,10.3,24.9,27v39c0,1.1-0.7,1.8-1.8,1.8h-9.5c-1.1,0-1.8-0.7-1.8-1.8v-36.1
	c0-11.6-5.4-17.7-15.5-17.7c-9.5,0-16,6.8-16,17v36.8c0,1.1-0.7,1.8-1.8,1.8h-9.5c-1.1,0-1.8-0.7-1.8-1.8v-62.6
	c0-1.1,0.7-1.8,1.8-1.8h9.5c1.1,0,1.8,0.7,1.8,1.8v5.6C191.1,262.1,198.2,258.8,206.8,258.8 M324.9,281.2c-0.7,2.1-1.3,4.5-1.3,7.9
	c0,0.4,0.2,0.6,0.6,0.6h33.2c0.4,0,1.2-0.2,1.2-0.6c0-3.3-0.3-5.8-1-7.9c-2.3-6.9-8.1-10.9-16-10.9
	C333.7,270.3,327.2,274.2,324.9,281.2 M340.9,258.7c13.8,0,24.1,7,28.1,19.3c1.4,4.4,2.2,9.1,2.2,20.4c0,1.1-0.8,1.8-2,1.8h-44.9
	c-0.4,0-0.6,0.1-0.6,0.5c0,0.2,0.2,2,0.7,3.4c2.6,7.9,9.3,11.7,18.1,11.7c9.3,0,14.9-4.2,18-7.7c0.9-0.9,1.8-1,2.7-0.3l6.1,5.5
	c0.8,0.7,0.9,1.6,0.2,2.5c-6.2,7.8-16.4,12.3-27.9,12.3c-14.4,0-25.4-7.4-29.2-19.7l-0.1-0.4c-1.2-4.2-1.9-8.4-1.9-12.9
	c0-8,0.9-12.6,2.4-17.1C316.7,265.7,327,258.7,340.9,258.7 M403.2,315h-2.8c-4.9,0-6.8-2-6.8-7.5v-75.1c0-1.1,0-1.8,0-1.8h-11.2
	c-1.1,0-1.8,0.8-1.8,1.8v75.9c0,13.3,5.3,19,17.7,19h5c1.1,0,1.8-0.7,1.8-1.8v-8.6C405,315.7,404.2,315,403.2,315 M438.1,316.8
	c11,0,17.6-5.1,17.6-13.6v-7.8c0-0.4-0.1-0.6-0.6-0.6h-14.2c-12.1,0-17.3,3.4-17.3,11.2C423.6,313,428.8,316.8,438.1,316.8
	 M471.9,316.8c1,0,1.6,0.6,1.6,1.6v8.8l-8.7-0.1c-7,0-8.7-2-9.1-7.5c-3.9,5.4-11.3,8.4-20.6,8.4c-14.9,0-24.2-8.3-24.2-21.6
	c0-14.6,9.7-22.2,28-22.2h16.1c0.4,0,0.5-0.1,0.6-0.5c0-8.5-2.8-13.8-16.7-13.8c-6.9,0-12.2,1.9-17,5.4c-0.9,0.7-2,0.6-2.5-0.2
	l-4-6.8c-0.5-1-0.4-1.8,0.4-2.5c5.9-4.5,14.5-7.5,24.3-7.5c20.3,0,28.2,7.3,28.2,24.9v29.8C468.5,316.1,469.2,316.8,471.9,316.8
	 M288.5,287.5c0-9.9-7.9-17.9-17.6-17.9c-9.7,0-17.6,7.8-17.6,20.2v3c0,0.5,0,0.9,0,1.4c0,0.4,0,0.7,0,1.1v2
	c0,12.6,7.9,19.5,17.6,19.5c9.7,0,17.6-8,17.6-17.9V287.5z M301.4,230.3v1.8v92.6c0,1.1-0.8,1.8-1.8,1.8h-9.5
	c-1.1,0-1.8-0.7-1.8-1.8v-3.2c-3.1,4.2-10.4,6.7-19.9,6.7c-12.1,0-21.1-5.8-25.4-17.2c-2.1-5.5-2.4-12-2.7-16.9
	c-0.3-6.9,0.6-12.2,2.4-17.5c3.7-11.2,13.7-17.8,26.3-17.8c8.5,0,16,2.3,19.3,6.1v-32.6c0-1.1,0.7-1.8,1.8-1.8H301.4z M139.4,291.9
	l-14.5-35.2v0l0,0l0,0v0l-14.5,35.2h14.5h0H139.4z M165.4,322.9c0,0,1.3,2.8,1,3.2c-0.2,0.4-0.7,0.5-1.2,0.5h-10.4
	c-1,0-1.7-0.5-2.2-1.7l-8.3-20.3h-19.4h0h-19.5l-8.3,20.3c-0.5,1.2-1.2,1.7-2.2,1.7H84.5c-0.5,0-1-0.2-1.2-0.5c-0.3-0.4,1-3.1,1-3.2
	l33.7-83.5c0.8-2.2,2.7-5.9,6.8-5.9c4.1,0,6.1,3.7,6.8,5.9L165.4,322.9 M-13.8,218.4c0,0-17.3-20.5-19.1-22.6
	c-1.7-2.1-3.4-4.1-6-4.2v0c0,0,0,0,0,0l0,0v0c-2.7,0.1-4.3,2.1-6.1,4.2c-1.8,2.1-19.1,22.6-19.1,22.6l14.5,7.8l10.7-13.2l10.7,13.2
	L-13.8,218.4z M-64.1,340c0,0,17.3,20.5,19.1,22.6c1.7,2.1,3.4,4.1,6,4.2c0,0,0,0,0,0c0,0,0,0,0,0c2.7-0.1,4.3-2.1,6-4.2
	c1.8-2.1,19.1-22.6,19.1-22.6l-14.5-7.8l-10.7,13.2l-10.7-13.2L-64.1,340z M-64.1,218.4c0,0-26.7-2.2-29.5-2.5
	c-2.7-0.2-5.3-0.5-7.2,1.3l0,0c0,0,0,0,0,0l0,0v0c-1.8,1.9-1.5,4.5-1.3,7.2c0.2,2.8,2.5,29.5,2.5,29.5l15.8-4.7l-1.7-16.9l16.9,1.7
	L-64.1,218.4z M-13.8,340c0,0,26.7,2.2,29.5,2.5c2.7,0.2,5.3,0.5,7.2-1.3c0,0,0,0,0,0s0,0,0,0c1.8-1.9,1.5-4.5,1.3-7.2
	c-0.2-2.7-2.5-29.5-2.5-29.5L6.1,309L7.8,326l-16.9-1.7L-13.8,340z M-99.7,254c0,0-20.5,17.3-22.6,19.1c-2.1,1.7-4.1,3.4-4.2,6h0
	c0,0,0,0,0,0s0,0,0,0h0c0.1,2.7,2.1,4.3,4.2,6c2.1,1.8,22.6,19.1,22.6,19.1l7.9-14.5l-13.2-10.7l13.2-10.7L-99.7,254z M21.8,304.4
	c0,0,20.5-17.3,22.6-19.1c2.1-1.7,4.1-3.4,4.2-6h0c0,0,0,0,0,0c0,0,0,0,0,0h0c-0.1-2.7-2.1-4.3-4.2-6c-2.1-1.8-22.6-19.1-22.6-19.1
	L14,268.5l13.2,10.7L14,289.9L21.8,304.4z M-99.7,304.4c0,0-2.3,26.8-2.5,29.5c-0.2,2.7-0.5,5.3,1.3,7.2l0,0c0,0,0,0,0,0
	c0,0,0,0,0,0v0c1.9,1.8,4.6,1.5,7.3,1.3c2.7-0.2,29.5-2.5,29.5-2.5l-4.7-15.8l-16.9,1.7L-84,309L-99.7,304.4z M21.8,254
	c0,0,2.2-26.7,2.5-29.5c0.2-2.7,0.5-5.3-1.3-7.2v0c0,0,0,0,0,0l0,0c-1.9-1.8-4.5-1.5-7.2-1.3c-2.7,0.2-29.5,2.5-29.5,2.5l4.7,15.8
	l16.9-1.7l-1.7,16.9L21.8,254z"/>
</svg>
